<svg xmlns="http://www.w3.org/2000/svg" viewBox="0 0 512 512">
  <rect width="512" height="512" fill="#0d0e11"/>
  <g transform="translate(76,46) scale(1.6)">
    <polygon points="14,110 27,101 53,101 66,110 53,119 27,119" fill="#565a60" stroke="#141619" stroke-width="1"/>
    <polygon points="14,110 27,119 27,240 14,240" fill="#3f434a"/>
    <polygon points="27,119 53,119 53,240 27,240" fill="#2b2f35"/>
    <polygon points="53,119 66,110 66,240 53,240" fill="#1d2025"/>
    <polygon points="62,58 75,49 101,49 114,58 101,67 75,67" fill="#565a60" stroke="#141619" stroke-width="1"/>
    <polygon points="62,58 75,67 75,240 62,240" fill="#3f434a"/>
    <polygon points="75,67 101,67 101,240 75,240" fill="#2b2f35"/>
    <polygon points="101,67 114,58 114,240 101,240" fill="#1d2025"/>
    <line x1="75" y1="140" x2="101" y2="138" stroke="#181b20" stroke-width="1.3"/>
    <polygon points="164,48 177,39 203,39 216,48 203,57 177,57" fill="#6a6e74" stroke="#141619" stroke-width="1"/>
    <polygon points="164,48 177,57 177,240 164,240" fill="#50545a"/>
    <polygon points="177,57 203,57 203,240 177,240" fill="#3b3f45"/>
    <polygon points="203,57 216,48 216,240 203,240" fill="#282b30"/>
    <line x1="177" y1="130" x2="203" y2="128" stroke="#181b20" stroke-width="1.3"/>
    <polygon points="112,10 126,0 154,0 168,10 154,20 126,20" fill="#60646a" stroke="#141619" stroke-width="1"/>
    <polygon points="112,10 126,20 126,240 112,240" fill="#464a50"/>
    <polygon points="126,20 154,20 154,240 126,240" fill="#31353b"/>
    <polygon points="154,20 168,10 168,240 154,240" fill="#202329"/>
    <line x1="126" y1="110" x2="154" y2="108" stroke="#181b20" stroke-width="1.3"/>
    <line x1="126" y1="175" x2="154" y2="173" stroke="#181b20" stroke-width="1.3"/>
    <polygon points="37,170 50,160 78,160 91,170 78,180 50,180" fill="#6e7278" stroke="#141619" stroke-width="1"/>
    <polygon points="37,170 50,180 50,262 37,262" fill="#53575d"/>
    <polygon points="50,180 78,180 78,262 50,262" fill="#3e4248"/>
    <polygon points="78,180 91,170 91,262 78,262" fill="#2b2e33"/>
    <line x1="50" y1="225" x2="78" y2="223" stroke="#17191d" stroke-width="1.3"/>
    <polygon points="89,144 102,134 130,134 143,144 130,154 102,154" fill="#b3b5b8" stroke="#141619" stroke-width="1"/>
    <polygon points="89,144 102,154 102,262 89,262" fill="#9da0a4"/>
    <polygon points="102,154 130,154 130,262 102,262" fill="#898c90"/>
    <polygon points="130,154 143,144 143,262 130,262" fill="#6f7276"/>
    <line x1="102" y1="205" x2="130" y2="203" stroke="#74777b" stroke-width="1.3"/>
    <polygon points="141,156 154,146 182,146 195,156 182,166 154,166" fill="#6e7278" stroke="#141619" stroke-width="1"/>
    <polygon points="141,156 154,166 154,262 141,262" fill="#53575d"/>
    <polygon points="154,166 182,166 182,262 154,262" fill="#3e4248"/>
    <polygon points="182,166 195,156 195,262 182,262" fill="#2b2e33"/>
    <line x1="154" y1="220" x2="182" y2="218" stroke="#17191d" stroke-width="1.3"/>
    <polygon points="192,190 202,183 222,183 232,190 222,197 202,197" fill="#62666c" stroke="#141619" stroke-width="1"/>
    <polygon points="192,190 202,197 202,262 192,262" fill="#4a4e54"/>
    <polygon points="202,197 222,197 222,262 202,262" fill="#363a40"/>
    <polygon points="222,197 232,190 232,262 222,262" fill="#25282d"/>
  </g>
</svg>
