<svg xmlns="http://www.w3.org/2000/svg" viewBox="0 0 512 512">
  <defs>
    <linearGradient id="bg" x1="0" y1="0" x2="1" y2="1">
      <stop offset="0" stop-color="#1c2230"/>
      <stop offset="1" stop-color="#0c0e12"/>
    </linearGradient>
    <linearGradient id="bar" x1="0" y1="0" x2="1" y2="0">
      <stop offset="0" stop-color="#ff9a62"/>
      <stop offset="1" stop-color="#ff7a45"/>
    </linearGradient>
  </defs>
  <rect width="512" height="512" rx="112" fill="url(#bg)"/>
  <!-- barbell -->
  <g transform="translate(256 256)">
    <rect x="-170" y="-12" width="340" height="24" rx="12" fill="url(#bar)"/>
    <rect x="-186" y="-58" width="40" height="116" rx="14" fill="#ff7a45"/>
    <rect x="146" y="-58" width="40" height="116" rx="14" fill="#ff7a45"/>
    <rect x="-138" y="-44" width="30" height="88" rx="12" fill="#ff9a62"/>
    <rect x="108" y="-44" width="30" height="88" rx="12" fill="#ff9a62"/>
  </g>
  <!-- flame spark -->
  <path d="M256 108c10 26 34 38 34 64 0 20-15 36-34 36s-34-16-34-36c0-26 24-38 34-64z" fill="#fbbf24"/>
</svg>
